<?xml version="1.0" encoding="utf-8"?>

<!DOCTYPE svg PUBLIC "-//W3C//DTD SVG 1.1//EN" "http://www.w3.org/Graphics/SVG/1.1/DTD/svg11.dtd">
<!-- Uploaded to: SVG Repo, www.svgrepo.com, Generator: SVG Repo Mixer Tools -->
<svg version="1.1" id="_x32_" xmlns="http://www.w3.org/2000/svg" xmlns:xlink="http://www.w3.org/1999/xlink" 
	 viewBox="0 0 512 512"  xml:space="preserve">
<style type="text/css">
	.st0{fill:#000000;}
</style>
<g>
	<polygon class="st0" points="440.359,375.558 71.651,375.558 71.651,337.052 34.748,337.052 34.748,488.334 71.651,488.334 
		71.651,405.541 440.359,405.541 440.359,488.334 477.252,488.334 477.252,337.052 440.359,337.052 	"/>
	<path class="st0" d="M250.228,269.504v-86.935H50.516v-80.44h410.969v80.44H269.603v86.935h239.372l-45.83-86.935h21.511V85.462
		h-21.798h-1.374h-49.517l-32.574-61.796H132.617l-32.574,61.796H50.516h-1.364H27.344v97.107h21.512L3.035,269.504H250.228z
		 M250.228,36.419h19.375v49.043h-19.375V36.419z"/>
	<rect y="288.889" class="st0" width="512" height="39.336"/>
</g>
</svg>